# xmcd CD database file
#
# Track frame offsets:
#	150
#	8625
#	19407
#	35322
#	55462
#	67882
#	78845
#	95112
#	106127
#	114035
#	127980
#	139062
#	150550
#	161580
#	172350
#	184922
#	204172
#
# Disc length: 2946 seconds
#
# Revision: 0
# Processed by: cddbd v1.4PL0 Copyright (c) Steve Scherf et al.
# Submitted via: CDex 1.40Beta9
#
DISCID=d70b8011
DTITLE=Mance LIPSCOMB - Mama Don't Allow
DYEAR=1964
DGENRE=Blues
TTITLE0=Nobody Cares For Me
TTITLE1=Good As I Am To You
TTITLE2=Going Down Slow
TTITLE3=Rock Me Mama
TTITLE4=So Different Blues
TTITLE5=Late Hours Blues
TTITLE6=Shorty George Cut Down
TTITLE7=Shine On Harvest Moon
TTITLE8=See You Mama Every Night
TTITLE9=Corrina, Corrina
TTITLE10=Long Way To Tiperary
TTITLE11=Trouble In Mind
TTITLE12=Get Away Blues
TTITLE13=Going Down Slow
TTITLE14=Baby Please Don't Go
TTITLE15=Night Time
TTITLE16=Mama Don't Allow
EXTD=YEAR: 1964 ID3G: 0
EXTT0=
EXTT1=
EXTT2=
EXTT3=
EXTT4=
EXTT5=
EXTT6=
EXTT7=
EXTT8=
EXTT9=
EXTT10=
EXTT11=
EXTT12=
EXTT13=
EXTT14=
EXTT15=
EXTT16=
PLAYORDER=
